<?xml version="1.0" encoding="UTF-8" standalone="no"?>
<!DOCTYPE svg PUBLIC "-//W3C//DTD SVG 1.1//EN"
 "http://www.w3.org/Graphics/SVG/1.1/DTD/svg11.dtd">
<!-- Generated by graphviz version 2.26.3 (20100126.1600)
 -->
<!-- Title: name Pages: 1 -->
<svg width="536pt" height="1104pt"
 viewBox="0.00 0.00 536.00 1104.00" xmlns="http://www.w3.org/2000/svg" xmlns:xlink="http://www.w3.org/1999/xlink">
<g id="graph1" class="graph" transform="scale(1 1) rotate(0) translate(4 1100)">
<title>name</title>
<!-- employees -->
<g id="node1" class="node"><title>employees</title>
<polygon fill="Lavender" stroke="Lavender" points="80,-378 80,-401 227,-401 227,-378 80,-378"/>
<polygon fill="none" stroke="black" points="80,-378 80,-401 227,-401 227,-378 80,-378"/>
<text text-anchor="start" x="124" y="-386.7" font-family="Helvetica,sans-Serif" font-weight="bold" font-size="12.00">employees</text>
<polygon fill="White" stroke="White" points="80,-360 80,-378 181,-378 181,-360 80,-360"/>
<polygon fill="none" stroke="black" points="80,-360 80,-378 181,-378 181,-360 80,-360"/>
<text text-anchor="start" x="83" y="-366.2" font-family="Helvetica,sans-Serif" font-size="12.00">employeeNumber</text>
<polygon fill="White" stroke="White" points="181,-360 181,-378 227,-378 227,-360 181,-360"/>
<polygon fill="none" stroke="black" points="181,-360 181,-378 227,-378 227,-360 181,-360"/>
<text text-anchor="start" x="184" y="-366.2" font-family="Helvetica,sans-Serif" font-size="12.00">int</text>
<polygon fill="White" stroke="White" points="80,-342 80,-360 181,-360 181,-342 80,-342"/>
<polygon fill="none" stroke="black" points="80,-342 80,-360 181,-360 181,-342 80,-342"/>
<text text-anchor="start" x="83" y="-348.2" font-family="Helvetica,sans-Serif" font-size="12.00">lastName</text>
<polygon fill="White" stroke="White" points="181,-342 181,-360 227,-360 227,-342 181,-342"/>
<polygon fill="none" stroke="black" points="181,-342 181,-360 227,-360 227,-342 181,-342"/>
<text text-anchor="start" x="184" y="-348.2" font-family="Helvetica,sans-Serif" font-size="12.00">varchar</text>
<polygon fill="White" stroke="White" points="80,-324 80,-342 181,-342 181,-324 80,-324"/>
<polygon fill="none" stroke="black" points="80,-324 80,-342 181,-342 181,-324 80,-324"/>
<text text-anchor="start" x="83" y="-330.2" font-family="Helvetica,sans-Serif" font-size="12.00">firstName</text>
<polygon fill="White" stroke="White" points="181,-324 181,-342 227,-342 227,-324 181,-324"/>
<polygon fill="none" stroke="black" points="181,-324 181,-342 227,-342 227,-324 181,-324"/>
<text text-anchor="start" x="184" y="-330.2" font-family="Helvetica,sans-Serif" font-size="12.00">varchar</text>
<polygon fill="White" stroke="White" points="80,-306 80,-324 181,-324 181,-306 80,-306"/>
<polygon fill="none" stroke="black" points="80,-306 80,-324 181,-324 181,-306 80,-306"/>
<text text-anchor="start" x="83" y="-312.2" font-family="Helvetica,sans-Serif" font-size="12.00">extension</text>
<polygon fill="White" stroke="White" points="181,-306 181,-324 227,-324 227,-306 181,-306"/>
<polygon fill="none" stroke="black" points="181,-306 181,-324 227,-324 227,-306 181,-306"/>
<text text-anchor="start" x="184" y="-312.2" font-family="Helvetica,sans-Serif" font-size="12.00">varchar</text>
<polygon fill="White" stroke="White" points="80,-288 80,-306 181,-306 181,-288 80,-288"/>
<polygon fill="none" stroke="black" points="80,-288 80,-306 181,-306 181,-288 80,-288"/>
<text text-anchor="start" x="83" y="-294.2" font-family="Helvetica,sans-Serif" font-size="12.00">email</text>
<polygon fill="White" stroke="White" points="181,-288 181,-306 227,-306 227,-288 181,-288"/>
<polygon fill="none" stroke="black" points="181,-288 181,-306 227,-306 227,-288 181,-288"/>
<text text-anchor="start" x="184" y="-294.2" font-family="Helvetica,sans-Serif" font-size="12.00">varchar</text>
<polygon fill="White" stroke="White" points="80,-270 80,-288 181,-288 181,-270 80,-270"/>
<polygon fill="none" stroke="black" points="80,-270 80,-288 181,-288 181,-270 80,-270"/>
<text text-anchor="start" x="83" y="-276.2" font-family="Helvetica,sans-Serif" font-size="12.00">officeCode</text>
<polygon fill="White" stroke="White" points="181,-270 181,-288 227,-288 227,-270 181,-270"/>
<polygon fill="none" stroke="black" points="181,-270 181,-288 227,-288 227,-270 181,-270"/>
<text text-anchor="start" x="184" y="-276.2" font-family="Helvetica,sans-Serif" font-size="12.00">varchar</text>
<polygon fill="White" stroke="White" points="80,-252 80,-270 181,-270 181,-252 80,-252"/>
<polygon fill="none" stroke="black" points="80,-252 80,-270 181,-270 181,-252 80,-252"/>
<text text-anchor="start" x="83" y="-258.2" font-family="Helvetica,sans-Serif" font-size="12.00">reportsTo</text>
<polygon fill="White" stroke="White" points="181,-252 181,-270 227,-270 227,-252 181,-252"/>
<polygon fill="none" stroke="black" points="181,-252 181,-270 227,-270 227,-252 181,-252"/>
<text text-anchor="start" x="184" y="-258.2" font-family="Helvetica,sans-Serif" font-size="12.00">int</text>
<polygon fill="White" stroke="White" points="80,-234 80,-252 181,-252 181,-234 80,-234"/>
<polygon fill="none" stroke="black" points="80,-234 80,-252 181,-252 181,-234 80,-234"/>
<text text-anchor="start" x="83" y="-240.2" font-family="Helvetica,sans-Serif" font-size="12.00">jobTitle</text>
<polygon fill="White" stroke="White" points="181,-234 181,-252 227,-252 227,-234 181,-234"/>
<polygon fill="none" stroke="black" points="181,-234 181,-252 227,-252 227,-234 181,-234"/>
<text text-anchor="start" x="184" y="-240.2" font-family="Helvetica,sans-Serif" font-size="12.00">varchar</text>
</g>
<!-- employees&#45;&gt;employees -->
<g id="edge6" class="edge"><title>employees&#45;&gt;employees</title>
<path fill="none" stroke="black" d="M234.18,-354.376C244.894,-348.172 252,-336.047 252,-318 252,-305.029 248.329,-295.117 242.286,-288.264"/>
<polygon fill="black" stroke="black" points="244.134,-285.253 234.18,-281.624 239.698,-290.668 244.134,-285.253"/>
</g>
<!-- offices -->
<g id="node4" class="node"><title>offices</title>
<polygon fill="Lavender" stroke="Lavender" points="91,-166 91,-189 216,-189 216,-166 91,-166"/>
<polygon fill="none" stroke="black" points="91,-166 91,-189 216,-189 216,-166 91,-166"/>
<text text-anchor="start" x="136" y="-174.7" font-family="Helvetica,sans-Serif" font-weight="bold" font-size="12.00">offices</text>
<polygon fill="White" stroke="White" points="91,-148 91,-166 170,-166 170,-148 91,-148"/>
<polygon fill="none" stroke="black" points="91,-148 91,-166 170,-166 170,-148 91,-148"/>
<text text-anchor="start" x="94" y="-154.2" font-family="Helvetica,sans-Serif" font-size="12.00">officeCode</text>
<polygon fill="White" stroke="White" points="170,-148 170,-166 216,-166 216,-148 170,-148"/>
<polygon fill="none" stroke="black" points="170,-148 170,-166 216,-166 216,-148 170,-148"/>
<text text-anchor="start" x="173" y="-154.2" font-family="Helvetica,sans-Serif" font-size="12.00">varchar</text>
<polygon fill="White" stroke="White" points="91,-130 91,-148 170,-148 170,-130 91,-130"/>
<polygon fill="none" stroke="black" points="91,-130 91,-148 170,-148 170,-130 91,-130"/>
<text text-anchor="start" x="94" y="-136.2" font-family="Helvetica,sans-Serif" font-size="12.00">city</text>
<polygon fill="White" stroke="White" points="170,-130 170,-148 216,-148 216,-130 170,-130"/>
<polygon fill="none" stroke="black" points="170,-130 170,-148 216,-148 216,-130 170,-130"/>
<text text-anchor="start" x="173" y="-136.2" font-family="Helvetica,sans-Serif" font-size="12.00">varchar</text>
<polygon fill="White" stroke="White" points="91,-112 91,-130 170,-130 170,-112 91,-112"/>
<polygon fill="none" stroke="black" points="91,-112 91,-130 170,-130 170,-112 91,-112"/>
<text text-anchor="start" x="94" y="-118.2" font-family="Helvetica,sans-Serif" font-size="12.00">phone</text>
<polygon fill="White" stroke="White" points="170,-112 170,-130 216,-130 216,-112 170,-112"/>
<polygon fill="none" stroke="black" points="170,-112 170,-130 216,-130 216,-112 170,-112"/>
<text text-anchor="start" x="173" y="-118.2" font-family="Helvetica,sans-Serif" font-size="12.00">varchar</text>
<polygon fill="White" stroke="White" points="91,-94 91,-112 170,-112 170,-94 91,-94"/>
<polygon fill="none" stroke="black" points="91,-94 91,-112 170,-112 170,-94 91,-94"/>
<text text-anchor="start" x="94" y="-100.2" font-family="Helvetica,sans-Serif" font-size="12.00">addressLine1</text>
<polygon fill="White" stroke="White" points="170,-94 170,-112 216,-112 216,-94 170,-94"/>
<polygon fill="none" stroke="black" points="170,-94 170,-112 216,-112 216,-94 170,-94"/>
<text text-anchor="start" x="173" y="-100.2" font-family="Helvetica,sans-Serif" font-size="12.00">varchar</text>
<polygon fill="White" stroke="White" points="91,-76 91,-94 170,-94 170,-76 91,-76"/>
<polygon fill="none" stroke="black" points="91,-76 91,-94 170,-94 170,-76 91,-76"/>
<text text-anchor="start" x="94" y="-82.2" font-family="Helvetica,sans-Serif" font-size="12.00">addressLine2</text>
<polygon fill="White" stroke="White" points="170,-76 170,-94 216,-94 216,-76 170,-76"/>
<polygon fill="none" stroke="black" points="170,-76 170,-94 216,-94 216,-76 170,-76"/>
<text text-anchor="start" x="173" y="-82.2" font-family="Helvetica,sans-Serif" font-size="12.00">varchar</text>
<polygon fill="White" stroke="White" points="91,-58 91,-76 170,-76 170,-58 91,-58"/>
<polygon fill="none" stroke="black" points="91,-58 91,-76 170,-76 170,-58 91,-58"/>
<text text-anchor="start" x="94" y="-64.2" font-family="Helvetica,sans-Serif" font-size="12.00">state</text>
<polygon fill="White" stroke="White" points="170,-58 170,-76 216,-76 216,-58 170,-58"/>
<polygon fill="none" stroke="black" points="170,-58 170,-76 216,-76 216,-58 170,-58"/>
<text text-anchor="start" x="173" y="-64.2" font-family="Helvetica,sans-Serif" font-size="12.00">varchar</text>
<polygon fill="White" stroke="White" points="91,-40 91,-58 170,-58 170,-40 91,-40"/>
<polygon fill="none" stroke="black" points="91,-40 91,-58 170,-58 170,-40 91,-40"/>
<text text-anchor="start" x="94" y="-46.2" font-family="Helvetica,sans-Serif" font-size="12.00">country</text>
<polygon fill="White" stroke="White" points="170,-40 170,-58 216,-58 216,-40 170,-40"/>
<polygon fill="none" stroke="black" points="170,-40 170,-58 216,-58 216,-40 170,-40"/>
<text text-anchor="start" x="173" y="-46.2" font-family="Helvetica,sans-Serif" font-size="12.00">varchar</text>
<polygon fill="White" stroke="White" points="91,-22 91,-40 170,-40 170,-22 91,-22"/>
<polygon fill="none" stroke="black" points="91,-22 91,-40 170,-40 170,-22 91,-22"/>
<text text-anchor="start" x="94" y="-28.2" font-family="Helvetica,sans-Serif" font-size="12.00">postalCode</text>
<polygon fill="White" stroke="White" points="170,-22 170,-40 216,-40 216,-22 170,-22"/>
<polygon fill="none" stroke="black" points="170,-22 170,-40 216,-40 216,-22 170,-22"/>
<text text-anchor="start" x="173" y="-28.2" font-family="Helvetica,sans-Serif" font-size="12.00">varchar</text>
<polygon fill="White" stroke="White" points="91,-4 91,-22 170,-22 170,-4 91,-4"/>
<polygon fill="none" stroke="black" points="91,-4 91,-22 170,-22 170,-4 91,-4"/>
<text text-anchor="start" x="94" y="-10.2" font-family="Helvetica,sans-Serif" font-size="12.00">territory</text>
<polygon fill="White" stroke="White" points="170,-4 170,-22 216,-22 216,-4 170,-4"/>
<polygon fill="none" stroke="black" points="170,-4 170,-22 216,-22 216,-4 170,-4"/>
<text text-anchor="start" x="173" y="-10.2" font-family="Helvetica,sans-Serif" font-size="12.00">varchar</text>
</g>
<!-- employees&#45;&gt;offices -->
<g id="edge4" class="edge"><title>employees&#45;&gt;offices</title>
<path fill="none" stroke="black" d="M153,-230.338C153,-221.582 153,-212.626 153,-203.703"/>
<polygon fill="black" stroke="black" points="156.5,-203.655 153,-193.655 149.5,-203.655 156.5,-203.655"/>
</g>
<!-- customers -->
<g id="node2" class="node"><title>customers</title>
<polygon fill="Lavender" stroke="Lavender" points="54,-680 54,-703 253,-703 253,-680 54,-680"/>
<polygon fill="none" stroke="black" points="54,-680 54,-703 253,-703 253,-680 54,-680"/>
<text text-anchor="start" x="125.5" y="-688.7" font-family="Helvetica,sans-Serif" font-weight="bold" font-size="12.00">customers</text>
<polygon fill="White" stroke="White" points="54,-662 54,-680 207,-680 207,-662 54,-662"/>
<polygon fill="none" stroke="black" points="54,-662 54,-680 207,-680 207,-662 54,-662"/>
<text text-anchor="start" x="57" y="-668.2" font-family="Helvetica,sans-Serif" font-size="12.00">customerNumber</text>
<polygon fill="White" stroke="White" points="207,-662 207,-680 253,-680 253,-662 207,-662"/>
<polygon fill="none" stroke="black" points="207,-662 207,-680 253,-680 253,-662 207,-662"/>
<text text-anchor="start" x="210" y="-668.2" font-family="Helvetica,sans-Serif" font-size="12.00">int</text>
<polygon fill="White" stroke="White" points="54,-644 54,-662 207,-662 207,-644 54,-644"/>
<polygon fill="none" stroke="black" points="54,-644 54,-662 207,-662 207,-644 54,-644"/>
<text text-anchor="start" x="57" y="-650.2" font-family="Helvetica,sans-Serif" font-size="12.00">customerName</text>
<polygon fill="White" stroke="White" points="207,-644 207,-662 253,-662 253,-644 207,-644"/>
<polygon fill="none" stroke="black" points="207,-644 207,-662 253,-662 253,-644 207,-644"/>
<text text-anchor="start" x="210" y="-650.2" font-family="Helvetica,sans-Serif" font-size="12.00">varchar</text>
<polygon fill="White" stroke="White" points="54,-626 54,-644 207,-644 207,-626 54,-626"/>
<polygon fill="none" stroke="black" points="54,-626 54,-644 207,-644 207,-626 54,-626"/>
<text text-anchor="start" x="57" y="-632.2" font-family="Helvetica,sans-Serif" font-size="12.00">contactLastName</text>
<polygon fill="White" stroke="White" points="207,-626 207,-644 253,-644 253,-626 207,-626"/>
<polygon fill="none" stroke="black" points="207,-626 207,-644 253,-644 253,-626 207,-626"/>
<text text-anchor="start" x="210" y="-632.2" font-family="Helvetica,sans-Serif" font-size="12.00">varchar</text>
<polygon fill="White" stroke="White" points="54,-608 54,-626 207,-626 207,-608 54,-608"/>
<polygon fill="none" stroke="black" points="54,-608 54,-626 207,-626 207,-608 54,-608"/>
<text text-anchor="start" x="57" y="-614.2" font-family="Helvetica,sans-Serif" font-size="12.00">contactFirstName</text>
<polygon fill="White" stroke="White" points="207,-608 207,-626 253,-626 253,-608 207,-608"/>
<polygon fill="none" stroke="black" points="207,-608 207,-626 253,-626 253,-608 207,-608"/>
<text text-anchor="start" x="210" y="-614.2" font-family="Helvetica,sans-Serif" font-size="12.00">varchar</text>
<polygon fill="White" stroke="White" points="54,-590 54,-608 207,-608 207,-590 54,-590"/>
<polygon fill="none" stroke="black" points="54,-590 54,-608 207,-608 207,-590 54,-590"/>
<text text-anchor="start" x="57" y="-596.2" font-family="Helvetica,sans-Serif" font-size="12.00">phone</text>
<polygon fill="White" stroke="White" points="207,-590 207,-608 253,-608 253,-590 207,-590"/>
<polygon fill="none" stroke="black" points="207,-590 207,-608 253,-608 253,-590 207,-590"/>
<text text-anchor="start" x="210" y="-596.2" font-family="Helvetica,sans-Serif" font-size="12.00">varchar</text>
<polygon fill="White" stroke="White" points="54,-572 54,-590 207,-590 207,-572 54,-572"/>
<polygon fill="none" stroke="black" points="54,-572 54,-590 207,-590 207,-572 54,-572"/>
<text text-anchor="start" x="57" y="-578.2" font-family="Helvetica,sans-Serif" font-size="12.00">addressLine1</text>
<polygon fill="White" stroke="White" points="207,-572 207,-590 253,-590 253,-572 207,-572"/>
<polygon fill="none" stroke="black" points="207,-572 207,-590 253,-590 253,-572 207,-572"/>
<text text-anchor="start" x="210" y="-578.2" font-family="Helvetica,sans-Serif" font-size="12.00">varchar</text>
<polygon fill="White" stroke="White" points="54,-554 54,-572 207,-572 207,-554 54,-554"/>
<polygon fill="none" stroke="black" points="54,-554 54,-572 207,-572 207,-554 54,-554"/>
<text text-anchor="start" x="57" y="-560.2" font-family="Helvetica,sans-Serif" font-size="12.00">addressLine2</text>
<polygon fill="White" stroke="White" points="207,-554 207,-572 253,-572 253,-554 207,-554"/>
<polygon fill="none" stroke="black" points="207,-554 207,-572 253,-572 253,-554 207,-554"/>
<text text-anchor="start" x="210" y="-560.2" font-family="Helvetica,sans-Serif" font-size="12.00">varchar</text>
<polygon fill="White" stroke="White" points="54,-536 54,-554 207,-554 207,-536 54,-536"/>
<polygon fill="none" stroke="black" points="54,-536 54,-554 207,-554 207,-536 54,-536"/>
<text text-anchor="start" x="57" y="-542.2" font-family="Helvetica,sans-Serif" font-size="12.00">city</text>
<polygon fill="White" stroke="White" points="207,-536 207,-554 253,-554 253,-536 207,-536"/>
<polygon fill="none" stroke="black" points="207,-536 207,-554 253,-554 253,-536 207,-536"/>
<text text-anchor="start" x="210" y="-542.2" font-family="Helvetica,sans-Serif" font-size="12.00">varchar</text>
<polygon fill="White" stroke="White" points="54,-518 54,-536 207,-536 207,-518 54,-518"/>
<polygon fill="none" stroke="black" points="54,-518 54,-536 207,-536 207,-518 54,-518"/>
<text text-anchor="start" x="57" y="-524.2" font-family="Helvetica,sans-Serif" font-size="12.00">state</text>
<polygon fill="White" stroke="White" points="207,-518 207,-536 253,-536 253,-518 207,-518"/>
<polygon fill="none" stroke="black" points="207,-518 207,-536 253,-536 253,-518 207,-518"/>
<text text-anchor="start" x="210" y="-524.2" font-family="Helvetica,sans-Serif" font-size="12.00">varchar</text>
<polygon fill="White" stroke="White" points="54,-500 54,-518 207,-518 207,-500 54,-500"/>
<polygon fill="none" stroke="black" points="54,-500 54,-518 207,-518 207,-500 54,-500"/>
<text text-anchor="start" x="57" y="-506.2" font-family="Helvetica,sans-Serif" font-size="12.00">postalCode</text>
<polygon fill="White" stroke="White" points="207,-500 207,-518 253,-518 253,-500 207,-500"/>
<polygon fill="none" stroke="black" points="207,-500 207,-518 253,-518 253,-500 207,-500"/>
<text text-anchor="start" x="210" y="-506.2" font-family="Helvetica,sans-Serif" font-size="12.00">varchar</text>
<polygon fill="White" stroke="White" points="54,-482 54,-500 207,-500 207,-482 54,-482"/>
<polygon fill="none" stroke="black" points="54,-482 54,-500 207,-500 207,-482 54,-482"/>
<text text-anchor="start" x="57" y="-488.2" font-family="Helvetica,sans-Serif" font-size="12.00">country</text>
<polygon fill="White" stroke="White" points="207,-482 207,-500 253,-500 253,-482 207,-482"/>
<polygon fill="none" stroke="black" points="207,-482 207,-500 253,-500 253,-482 207,-482"/>
<text text-anchor="start" x="210" y="-488.2" font-family="Helvetica,sans-Serif" font-size="12.00">varchar</text>
<polygon fill="White" stroke="White" points="54,-464 54,-482 207,-482 207,-464 54,-464"/>
<polygon fill="none" stroke="black" points="54,-464 54,-482 207,-482 207,-464 54,-464"/>
<text text-anchor="start" x="57" y="-470.2" font-family="Helvetica,sans-Serif" font-size="12.00">salesRepEmployeeNumber</text>
<polygon fill="White" stroke="White" points="207,-464 207,-482 253,-482 253,-464 207,-464"/>
<polygon fill="none" stroke="black" points="207,-464 207,-482 253,-482 253,-464 207,-464"/>
<text text-anchor="start" x="210" y="-470.2" font-family="Helvetica,sans-Serif" font-size="12.00">int</text>
<polygon fill="White" stroke="White" points="54,-446 54,-464 207,-464 207,-446 54,-446"/>
<polygon fill="none" stroke="black" points="54,-446 54,-464 207,-464 207,-446 54,-446"/>
<text text-anchor="start" x="57" y="-452.2" font-family="Helvetica,sans-Serif" font-size="12.00">creditLimit</text>
<polygon fill="White" stroke="White" points="207,-446 207,-464 253,-464 253,-446 207,-446"/>
<polygon fill="none" stroke="black" points="207,-446 207,-464 253,-464 253,-446 207,-446"/>
<text text-anchor="start" x="210" y="-452.2" font-family="Helvetica,sans-Serif" font-size="12.00">double</text>
</g>
<!-- customers&#45;&gt;employees -->
<g id="edge2" class="edge"><title>customers&#45;&gt;employees</title>
<path fill="none" stroke="black" d="M153,-442.36C153,-433.45 153,-424.566 153,-415.881"/>
<polygon fill="black" stroke="black" points="156.5,-415.787 153,-405.787 149.5,-415.787 156.5,-415.787"/>
</g>
<!-- orders -->
<g id="node7" class="node"><title>orders</title>
<polygon fill="Lavender" stroke="Lavender" points="8,-892 8,-915 153,-915 153,-892 8,-892"/>
<polygon fill="none" stroke="black" points="8,-892 8,-915 153,-915 153,-892 8,-892"/>
<text text-anchor="start" x="63" y="-900.7" font-family="Helvetica,sans-Serif" font-weight="bold" font-size="12.00">orders</text>
<polygon fill="White" stroke="White" points="8,-874 8,-892 107,-892 107,-874 8,-874"/>
<polygon fill="none" stroke="black" points="8,-874 8,-892 107,-892 107,-874 8,-874"/>
<text text-anchor="start" x="11" y="-880.2" font-family="Helvetica,sans-Serif" font-size="12.00">orderNumber</text>
<polygon fill="White" stroke="White" points="107,-874 107,-892 153,-892 153,-874 107,-874"/>
<polygon fill="none" stroke="black" points="107,-874 107,-892 153,-892 153,-874 107,-874"/>
<text text-anchor="start" x="110" y="-880.2" font-family="Helvetica,sans-Serif" font-size="12.00">int</text>
<polygon fill="White" stroke="White" points="8,-856 8,-874 107,-874 107,-856 8,-856"/>
<polygon fill="none" stroke="black" points="8,-856 8,-874 107,-874 107,-856 8,-856"/>
<text text-anchor="start" x="11" y="-862.2" font-family="Helvetica,sans-Serif" font-size="12.00">orderDate</text>
<polygon fill="White" stroke="White" points="107,-856 107,-874 153,-874 153,-856 107,-856"/>
<polygon fill="none" stroke="black" points="107,-856 107,-874 153,-874 153,-856 107,-856"/>
<text text-anchor="start" x="110" y="-862.2" font-family="Helvetica,sans-Serif" font-size="12.00">date</text>
<polygon fill="White" stroke="White" points="8,-838 8,-856 107,-856 107,-838 8,-838"/>
<polygon fill="none" stroke="black" points="8,-838 8,-856 107,-856 107,-838 8,-838"/>
<text text-anchor="start" x="11" y="-844.2" font-family="Helvetica,sans-Serif" font-size="12.00">requiredDate</text>
<polygon fill="White" stroke="White" points="107,-838 107,-856 153,-856 153,-838 107,-838"/>
<polygon fill="none" stroke="black" points="107,-838 107,-856 153,-856 153,-838 107,-838"/>
<text text-anchor="start" x="110" y="-844.2" font-family="Helvetica,sans-Serif" font-size="12.00">date</text>
<polygon fill="White" stroke="White" points="8,-820 8,-838 107,-838 107,-820 8,-820"/>
<polygon fill="none" stroke="black" points="8,-820 8,-838 107,-838 107,-820 8,-820"/>
<text text-anchor="start" x="11" y="-826.2" font-family="Helvetica,sans-Serif" font-size="12.00">shippedDate</text>
<polygon fill="White" stroke="White" points="107,-820 107,-838 153,-838 153,-820 107,-820"/>
<polygon fill="none" stroke="black" points="107,-820 107,-838 153,-838 153,-820 107,-820"/>
<text text-anchor="start" x="110" y="-826.2" font-family="Helvetica,sans-Serif" font-size="12.00">date</text>
<polygon fill="White" stroke="White" points="8,-802 8,-820 107,-820 107,-802 8,-802"/>
<polygon fill="none" stroke="black" points="8,-802 8,-820 107,-820 107,-802 8,-802"/>
<text text-anchor="start" x="11" y="-808.2" font-family="Helvetica,sans-Serif" font-size="12.00">status</text>
<polygon fill="White" stroke="White" points="107,-802 107,-820 153,-820 153,-802 107,-802"/>
<polygon fill="none" stroke="black" points="107,-802 107,-820 153,-820 153,-802 107,-802"/>
<text text-anchor="start" x="110" y="-808.2" font-family="Helvetica,sans-Serif" font-size="12.00">varchar</text>
<polygon fill="White" stroke="White" points="8,-784 8,-802 107,-802 107,-784 8,-784"/>
<polygon fill="none" stroke="black" points="8,-784 8,-802 107,-802 107,-784 8,-784"/>
<text text-anchor="start" x="11" y="-790.2" font-family="Helvetica,sans-Serif" font-size="12.00">comments</text>
<polygon fill="White" stroke="White" points="107,-784 107,-802 153,-802 153,-784 107,-784"/>
<polygon fill="none" stroke="black" points="107,-784 107,-802 153,-802 153,-784 107,-784"/>
<text text-anchor="start" x="110" y="-790.2" font-family="Helvetica,sans-Serif" font-size="12.00">text</text>
<polygon fill="White" stroke="White" points="8,-766 8,-784 107,-784 107,-766 8,-766"/>
<polygon fill="none" stroke="black" points="8,-766 8,-784 107,-784 107,-766 8,-766"/>
<text text-anchor="start" x="11" y="-772.2" font-family="Helvetica,sans-Serif" font-size="12.00">customerNumber</text>
<polygon fill="White" stroke="White" points="107,-766 107,-784 153,-784 153,-766 107,-766"/>
<polygon fill="none" stroke="black" points="107,-766 107,-784 153,-784 153,-766 107,-766"/>
<text text-anchor="start" x="110" y="-772.2" font-family="Helvetica,sans-Serif" font-size="12.00">int</text>
</g>
<!-- orders&#45;&gt;customers -->
<g id="edge12" class="edge"><title>orders&#45;&gt;customers</title>
<path fill="none" stroke="black" d="M101.606,-762.271C105.469,-748.196 109.6,-733.142 113.779,-717.914"/>
<polygon fill="black" stroke="black" points="117.259,-718.46 116.53,-707.89 110.508,-716.608 117.259,-718.46"/>
</g>
<!-- orderdetails -->
<g id="node8" class="node"><title>orderdetails</title>
<polygon fill="Lavender" stroke="Lavender" points="187,-1068 187,-1091 333,-1091 333,-1068 187,-1068"/>
<polygon fill="none" stroke="black" points="187,-1068 187,-1091 333,-1091 333,-1068 187,-1068"/>
<text text-anchor="start" x="228" y="-1076.7" font-family="Helvetica,sans-Serif" font-weight="bold" font-size="12.00">orderdetails</text>
<polygon fill="White" stroke="White" points="187,-1050 187,-1068 287,-1068 287,-1050 187,-1050"/>
<polygon fill="none" stroke="black" points="187,-1050 187,-1068 287,-1068 287,-1050 187,-1050"/>
<text text-anchor="start" x="190" y="-1056.2" font-family="Helvetica,sans-Serif" font-size="12.00">orderNumber</text>
<polygon fill="White" stroke="White" points="287,-1050 287,-1068 333,-1068 333,-1050 287,-1050"/>
<polygon fill="none" stroke="black" points="287,-1050 287,-1068 333,-1068 333,-1050 287,-1050"/>
<text text-anchor="start" x="290" y="-1056.2" font-family="Helvetica,sans-Serif" font-size="12.00">int</text>
<polygon fill="White" stroke="White" points="187,-1032 187,-1050 287,-1050 287,-1032 187,-1032"/>
<polygon fill="none" stroke="black" points="187,-1032 187,-1050 287,-1050 287,-1032 187,-1032"/>
<text text-anchor="start" x="190" y="-1038.2" font-family="Helvetica,sans-Serif" font-size="12.00">productCode</text>
<polygon fill="White" stroke="White" points="287,-1032 287,-1050 333,-1050 333,-1032 287,-1032"/>
<polygon fill="none" stroke="black" points="287,-1032 287,-1050 333,-1050 333,-1032 287,-1032"/>
<text text-anchor="start" x="290" y="-1038.2" font-family="Helvetica,sans-Serif" font-size="12.00">varchar</text>
<polygon fill="White" stroke="White" points="187,-1014 187,-1032 287,-1032 287,-1014 187,-1014"/>
<polygon fill="none" stroke="black" points="187,-1014 187,-1032 287,-1032 287,-1014 187,-1014"/>
<text text-anchor="start" x="190" y="-1020.2" font-family="Helvetica,sans-Serif" font-size="12.00">quantityOrdered</text>
<polygon fill="White" stroke="White" points="287,-1014 287,-1032 333,-1032 333,-1014 287,-1014"/>
<polygon fill="none" stroke="black" points="287,-1014 287,-1032 333,-1032 333,-1014 287,-1014"/>
<text text-anchor="start" x="290" y="-1020.2" font-family="Helvetica,sans-Serif" font-size="12.00">int</text>
<polygon fill="White" stroke="White" points="187,-996 187,-1014 287,-1014 287,-996 187,-996"/>
<polygon fill="none" stroke="black" points="187,-996 187,-1014 287,-1014 287,-996 187,-996"/>
<text text-anchor="start" x="190" y="-1002.2" font-family="Helvetica,sans-Serif" font-size="12.00">priceEach</text>
<polygon fill="White" stroke="White" points="287,-996 287,-1014 333,-1014 333,-996 287,-996"/>
<polygon fill="none" stroke="black" points="287,-996 287,-1014 333,-1014 333,-996 287,-996"/>
<text text-anchor="start" x="290" y="-1002.2" font-family="Helvetica,sans-Serif" font-size="12.00">double</text>
<polygon fill="White" stroke="White" points="187,-978 187,-996 287,-996 287,-978 187,-978"/>
<polygon fill="none" stroke="black" points="187,-978 187,-996 287,-996 287,-978 187,-978"/>
<text text-anchor="start" x="190" y="-984.2" font-family="Helvetica,sans-Serif" font-size="12.00">orderLineNumber</text>
<polygon fill="White" stroke="White" points="287,-978 287,-996 333,-996 333,-978 287,-978"/>
<polygon fill="none" stroke="black" points="287,-978 287,-996 333,-996 333,-978 287,-978"/>
<text text-anchor="start" x="290" y="-984.2" font-family="Helvetica,sans-Serif" font-size="12.00">smallint</text>
</g>
<!-- orderdetails&#45;&gt;orders -->
<g id="edge8" class="edge"><title>orderdetails&#45;&gt;orders</title>
<path fill="none" stroke="black" d="M203.144,-974.395C184.749,-954.788 169,-938 169,-938 169,-938 165.149,-933.803 159.05,-927.155"/>
<polygon fill="black" stroke="black" points="161.599,-924.757 152.26,-919.755 156.442,-929.49 161.599,-924.757"/>
</g>
<!-- products -->
<g id="node10" class="node"><title>products</title>
<polygon fill="Lavender" stroke="Lavender" points="364,-910 364,-933 517,-933 517,-910 364,-910"/>
<polygon fill="none" stroke="black" points="364,-910 364,-933 517,-933 517,-910 364,-910"/>
<text text-anchor="start" x="417" y="-918.7" font-family="Helvetica,sans-Serif" font-weight="bold" font-size="12.00">products</text>
<polygon fill="White" stroke="White" points="364,-892 364,-910 471,-910 471,-892 364,-892"/>
<polygon fill="none" stroke="black" points="364,-892 364,-910 471,-910 471,-892 364,-892"/>
<text text-anchor="start" x="367" y="-898.2" font-family="Helvetica,sans-Serif" font-size="12.00">productCode</text>
<polygon fill="White" stroke="White" points="471,-892 471,-910 517,-910 517,-892 471,-892"/>
<polygon fill="none" stroke="black" points="471,-892 471,-910 517,-910 517,-892 471,-892"/>
<text text-anchor="start" x="474" y="-898.2" font-family="Helvetica,sans-Serif" font-size="12.00">varchar</text>
<polygon fill="White" stroke="White" points="364,-874 364,-892 471,-892 471,-874 364,-874"/>
<polygon fill="none" stroke="black" points="364,-874 364,-892 471,-892 471,-874 364,-874"/>
<text text-anchor="start" x="367" y="-880.2" font-family="Helvetica,sans-Serif" font-size="12.00">productName</text>
<polygon fill="White" stroke="White" points="471,-874 471,-892 517,-892 517,-874 471,-874"/>
<polygon fill="none" stroke="black" points="471,-874 471,-892 517,-892 517,-874 471,-874"/>
<text text-anchor="start" x="474" y="-880.2" font-family="Helvetica,sans-Serif" font-size="12.00">varchar</text>
<polygon fill="White" stroke="White" points="364,-856 364,-874 471,-874 471,-856 364,-856"/>
<polygon fill="none" stroke="black" points="364,-856 364,-874 471,-874 471,-856 364,-856"/>
<text text-anchor="start" x="367" y="-862.2" font-family="Helvetica,sans-Serif" font-size="12.00">productLine</text>
<polygon fill="White" stroke="White" points="471,-856 471,-874 517,-874 517,-856 471,-856"/>
<polygon fill="none" stroke="black" points="471,-856 471,-874 517,-874 517,-856 471,-856"/>
<text text-anchor="start" x="474" y="-862.2" font-family="Helvetica,sans-Serif" font-size="12.00">varchar</text>
<polygon fill="White" stroke="White" points="364,-838 364,-856 471,-856 471,-838 364,-838"/>
<polygon fill="none" stroke="black" points="364,-838 364,-856 471,-856 471,-838 364,-838"/>
<text text-anchor="start" x="367" y="-844.2" font-family="Helvetica,sans-Serif" font-size="12.00">productScale</text>
<polygon fill="White" stroke="White" points="471,-838 471,-856 517,-856 517,-838 471,-838"/>
<polygon fill="none" stroke="black" points="471,-838 471,-856 517,-856 517,-838 471,-838"/>
<text text-anchor="start" x="474" y="-844.2" font-family="Helvetica,sans-Serif" font-size="12.00">varchar</text>
<polygon fill="White" stroke="White" points="364,-820 364,-838 471,-838 471,-820 364,-820"/>
<polygon fill="none" stroke="black" points="364,-820 364,-838 471,-838 471,-820 364,-820"/>
<text text-anchor="start" x="367" y="-826.2" font-family="Helvetica,sans-Serif" font-size="12.00">productVendor</text>
<polygon fill="White" stroke="White" points="471,-820 471,-838 517,-838 517,-820 471,-820"/>
<polygon fill="none" stroke="black" points="471,-820 471,-838 517,-838 517,-820 471,-820"/>
<text text-anchor="start" x="474" y="-826.2" font-family="Helvetica,sans-Serif" font-size="12.00">varchar</text>
<polygon fill="White" stroke="White" points="364,-802 364,-820 471,-820 471,-802 364,-802"/>
<polygon fill="none" stroke="black" points="364,-802 364,-820 471,-820 471,-802 364,-802"/>
<text text-anchor="start" x="367" y="-808.2" font-family="Helvetica,sans-Serif" font-size="12.00">productDescription</text>
<polygon fill="White" stroke="White" points="471,-802 471,-820 517,-820 517,-802 471,-802"/>
<polygon fill="none" stroke="black" points="471,-802 471,-820 517,-820 517,-802 471,-802"/>
<text text-anchor="start" x="474" y="-808.2" font-family="Helvetica,sans-Serif" font-size="12.00">text</text>
<polygon fill="White" stroke="White" points="364,-784 364,-802 471,-802 471,-784 364,-784"/>
<polygon fill="none" stroke="black" points="364,-784 364,-802 471,-802 471,-784 364,-784"/>
<text text-anchor="start" x="367" y="-790.2" font-family="Helvetica,sans-Serif" font-size="12.00">quantityInStock</text>
<polygon fill="White" stroke="White" points="471,-784 471,-802 517,-802 517,-784 471,-784"/>
<polygon fill="none" stroke="black" points="471,-784 471,-802 517,-802 517,-784 471,-784"/>
<text text-anchor="start" x="474" y="-790.2" font-family="Helvetica,sans-Serif" font-size="12.00">smallint</text>
<polygon fill="White" stroke="White" points="364,-766 364,-784 471,-784 471,-766 364,-766"/>
<polygon fill="none" stroke="black" points="364,-766 364,-784 471,-784 471,-766 364,-766"/>
<text text-anchor="start" x="367" y="-772.2" font-family="Helvetica,sans-Serif" font-size="12.00">buyPrice</text>
<polygon fill="White" stroke="White" points="471,-766 471,-784 517,-784 517,-766 471,-766"/>
<polygon fill="none" stroke="black" points="471,-766 471,-784 517,-784 517,-766 471,-766"/>
<text text-anchor="start" x="474" y="-772.2" font-family="Helvetica,sans-Serif" font-size="12.00">double</text>
<polygon fill="White" stroke="White" points="364,-748 364,-766 471,-766 471,-748 364,-748"/>
<polygon fill="none" stroke="black" points="364,-748 364,-766 471,-766 471,-748 364,-748"/>
<text text-anchor="start" x="367" y="-754.2" font-family="Helvetica,sans-Serif" font-size="12.00">MSRP</text>
<polygon fill="White" stroke="White" points="471,-748 471,-766 517,-766 517,-748 471,-748"/>
<polygon fill="none" stroke="black" points="471,-748 471,-766 517,-766 517,-748 471,-748"/>
<text text-anchor="start" x="474" y="-754.2" font-family="Helvetica,sans-Serif" font-size="12.00">double</text>
</g>
<!-- orderdetails&#45;&gt;products -->
<g id="edge10" class="edge"><title>orderdetails&#45;&gt;products</title>
<path fill="none" stroke="black" d="M316.213,-974.415C326.634,-963.183 337.763,-951.189 348.914,-939.17"/>
<polygon fill="black" stroke="black" points="351.618,-941.402 355.854,-931.691 346.486,-936.641 351.618,-941.402"/>
</g>
<!-- productlines -->
<g id="node15" class="node"><title>productlines</title>
<polygon fill="Lavender" stroke="Lavender" points="360,-599 360,-622 520,-622 520,-599 360,-599"/>
<polygon fill="none" stroke="black" points="360,-599 360,-622 520,-622 520,-599 360,-599"/>
<text text-anchor="start" x="407" y="-607.7" font-family="Helvetica,sans-Serif" font-weight="bold" font-size="12.00">productlines</text>
<polygon fill="White" stroke="White" points="360,-581 360,-599 449,-599 449,-581 360,-581"/>
<polygon fill="none" stroke="black" points="360,-581 360,-599 449,-599 449,-581 360,-581"/>
<text text-anchor="start" x="363" y="-587.2" font-family="Helvetica,sans-Serif" font-size="12.00">productLine</text>
<polygon fill="White" stroke="White" points="449,-581 449,-599 520,-599 520,-581 449,-581"/>
<polygon fill="none" stroke="black" points="449,-581 449,-599 520,-599 520,-581 449,-581"/>
<text text-anchor="start" x="452" y="-587.2" font-family="Helvetica,sans-Serif" font-size="12.00">varchar</text>
<polygon fill="White" stroke="White" points="360,-563 360,-581 449,-581 449,-563 360,-563"/>
<polygon fill="none" stroke="black" points="360,-563 360,-581 449,-581 449,-563 360,-563"/>
<text text-anchor="start" x="363" y="-569.2" font-family="Helvetica,sans-Serif" font-size="12.00">textDescription</text>
<polygon fill="White" stroke="White" points="449,-563 449,-581 520,-581 520,-563 449,-563"/>
<polygon fill="none" stroke="black" points="449,-563 449,-581 520,-581 520,-563 449,-563"/>
<text text-anchor="start" x="452" y="-569.2" font-family="Helvetica,sans-Serif" font-size="12.00">varchar</text>
<polygon fill="White" stroke="White" points="360,-545 360,-563 449,-563 449,-545 360,-545"/>
<polygon fill="none" stroke="black" points="360,-545 360,-563 449,-563 449,-545 360,-545"/>
<text text-anchor="start" x="363" y="-551.2" font-family="Helvetica,sans-Serif" font-size="12.00">htmlDescription</text>
<polygon fill="White" stroke="White" points="449,-545 449,-563 520,-563 520,-545 449,-545"/>
<polygon fill="none" stroke="black" points="449,-545 449,-563 520,-563 520,-545 449,-545"/>
<text text-anchor="start" x="452" y="-551.2" font-family="Helvetica,sans-Serif" font-size="12.00">mediumtext</text>
<polygon fill="White" stroke="White" points="360,-527 360,-545 449,-545 449,-527 360,-527"/>
<polygon fill="none" stroke="black" points="360,-527 360,-545 449,-545 449,-527 360,-527"/>
<text text-anchor="start" x="363" y="-533.2" font-family="Helvetica,sans-Serif" font-size="12.00">image</text>
<polygon fill="White" stroke="White" points="449,-527 449,-545 520,-545 520,-527 449,-527"/>
<polygon fill="none" stroke="black" points="449,-527 449,-545 520,-545 520,-527 449,-527"/>
<text text-anchor="start" x="452" y="-533.2" font-family="Helvetica,sans-Serif" font-size="12.00">mediumblob</text>
</g>
<!-- products&#45;&gt;productlines -->
<g id="edge16" class="edge"><title>products&#45;&gt;productlines</title>
<path fill="none" stroke="black" d="M440,-744.215C440,-708.293 440,-668.554 440,-636.619"/>
<polygon fill="black" stroke="black" points="443.5,-636.539 440,-626.539 436.5,-636.539 443.5,-636.539"/>
</g>
<!-- payments -->
<g id="node13" class="node"><title>payments</title>
<polygon fill="Lavender" stroke="Lavender" points="186,-865 186,-888 331,-888 331,-865 186,-865"/>
<polygon fill="none" stroke="black" points="186,-865 186,-888 331,-888 331,-865 186,-865"/>
<text text-anchor="start" x="232.5" y="-873.7" font-family="Helvetica,sans-Serif" font-weight="bold" font-size="12.00">payments</text>
<polygon fill="White" stroke="White" points="186,-847 186,-865 285,-865 285,-847 186,-847"/>
<polygon fill="none" stroke="black" points="186,-847 186,-865 285,-865 285,-847 186,-847"/>
<text text-anchor="start" x="189" y="-853.2" font-family="Helvetica,sans-Serif" font-size="12.00">customerNumber</text>
<polygon fill="White" stroke="White" points="285,-847 285,-865 331,-865 331,-847 285,-847"/>
<polygon fill="none" stroke="black" points="285,-847 285,-865 331,-865 331,-847 285,-847"/>
<text text-anchor="start" x="288" y="-853.2" font-family="Helvetica,sans-Serif" font-size="12.00">int</text>
<polygon fill="White" stroke="White" points="186,-829 186,-847 285,-847 285,-829 186,-829"/>
<polygon fill="none" stroke="black" points="186,-829 186,-847 285,-847 285,-829 186,-829"/>
<text text-anchor="start" x="189" y="-835.2" font-family="Helvetica,sans-Serif" font-size="12.00">checkNumber</text>
<polygon fill="White" stroke="White" points="285,-829 285,-847 331,-847 331,-829 285,-829"/>
<polygon fill="none" stroke="black" points="285,-829 285,-847 331,-847 331,-829 285,-829"/>
<text text-anchor="start" x="288" y="-835.2" font-family="Helvetica,sans-Serif" font-size="12.00">varchar</text>
<polygon fill="White" stroke="White" points="186,-811 186,-829 285,-829 285,-811 186,-811"/>
<polygon fill="none" stroke="black" points="186,-811 186,-829 285,-829 285,-811 186,-811"/>
<text text-anchor="start" x="189" y="-817.2" font-family="Helvetica,sans-Serif" font-size="12.00">paymentDate</text>
<polygon fill="White" stroke="White" points="285,-811 285,-829 331,-829 331,-811 285,-811"/>
<polygon fill="none" stroke="black" points="285,-811 285,-829 331,-829 331,-811 285,-811"/>
<text text-anchor="start" x="288" y="-817.2" font-family="Helvetica,sans-Serif" font-size="12.00">date</text>
<polygon fill="White" stroke="White" points="186,-793 186,-811 285,-811 285,-793 186,-793"/>
<polygon fill="none" stroke="black" points="186,-793 186,-811 285,-811 285,-793 186,-793"/>
<text text-anchor="start" x="189" y="-799.2" font-family="Helvetica,sans-Serif" font-size="12.00">amount</text>
<polygon fill="White" stroke="White" points="285,-793 285,-811 331,-811 331,-793 285,-793"/>
<polygon fill="none" stroke="black" points="285,-793 285,-811 331,-811 331,-793 285,-793"/>
<text text-anchor="start" x="288" y="-799.2" font-family="Helvetica,sans-Serif" font-size="12.00">double</text>
</g>
<!-- payments&#45;&gt;customers -->
<g id="edge14" class="edge"><title>payments&#45;&gt;customers</title>
<path fill="none" stroke="black" d="M237.63,-789.397C229.345,-768.406 219.324,-743.02 209.119,-717.169"/>
<polygon fill="black" stroke="black" points="212.282,-715.648 205.355,-707.632 205.771,-718.218 212.282,-715.648"/>
</g>
</g>
</svg>
